<svg width="29" height="26" viewBox="0 0 29 26" fill="none" xmlns="http://www.w3.org/2000/svg">
<path d="M7.5 5V1C7.5 0.734784 7.60536 0.48043 7.79289 0.292893C7.98043 0.105357 8.23478 0 8.5 0C8.76522 0 9.01957 0.105357 9.20711 0.292893C9.39464 0.48043 9.5 0.734784 9.5 1V5C9.5 5.26522 9.39464 5.51957 9.20711 5.70711C9.01957 5.89464 8.76522 6 8.5 6C8.23478 6 7.98043 5.89464 7.79289 5.70711C7.60536 5.51957 7.5 5.26522 7.5 5ZM12.5 6C12.7652 6 13.0196 5.89464 13.2071 5.70711C13.3946 5.51957 13.5 5.26522 13.5 5V1C13.5 0.734784 13.3946 0.48043 13.2071 0.292893C13.0196 0.105357 12.7652 0 12.5 0C12.2348 0 11.9804 0.105357 11.7929 0.292893C11.6054 0.48043 11.5 0.734784 11.5 1V5C11.5 5.26522 11.6054 5.51957 11.7929 5.70711C11.9804 5.89464 12.2348 6 12.5 6ZM16.5 6C16.7652 6 17.0196 5.89464 17.2071 5.70711C17.3946 5.51957 17.5 5.26522 17.5 5V1C17.5 0.734784 17.3946 0.48043 17.2071 0.292893C17.0196 0.105357 16.7652 0 16.5 0C16.2348 0 15.9804 0.105357 15.7929 0.292893C15.6054 0.48043 15.5 0.734784 15.5 1V5C15.5 5.26522 15.6054 5.51957 15.7929 5.70711C15.9804 5.89464 16.2348 6 16.5 6ZM28.5 13V14C28.4996 15.2719 28.0145 16.4959 27.1434 17.4227C26.2723 18.3496 25.0807 18.9096 23.8113 18.9888C23.1291 20.9182 21.9678 22.6426 20.4363 24H23.5C23.7652 24 24.0196 24.1054 24.2071 24.2929C24.3946 24.4804 24.5 24.7348 24.5 25C24.5 25.2652 24.3946 25.5196 24.2071 25.7071C24.0196 25.8946 23.7652 26 23.5 26H1.5C1.23478 26 0.98043 25.8946 0.792893 25.7071C0.605357 25.5196 0.5 25.2652 0.5 25C0.5 24.7348 0.605357 24.4804 0.792893 24.2929C0.98043 24.1054 1.23478 24 1.5 24H4.5675C3.29163 22.8728 2.26937 21.4878 1.56822 19.9364C0.867076 18.385 0.502989 16.7025 0.5 15V9C0.5 8.73478 0.605357 8.48043 0.792893 8.29289C0.98043 8.10536 1.23478 8 1.5 8H23.5C24.8261 8 26.0979 8.52678 27.0355 9.46447C27.9732 10.4021 28.5 11.6739 28.5 13ZM22.5 10H2.5V15C2.50386 16.8776 3.03447 18.7164 4.0315 20.3075C5.02853 21.8985 6.45199 23.1778 8.14 24H16.86C18.548 23.1778 19.9715 21.8985 20.9685 20.3075C21.9655 18.7164 22.4961 16.8776 22.5 15V10ZM26.5 13C26.4998 12.3798 26.3074 11.7749 25.9492 11.2685C25.5911 10.7621 25.0848 10.3792 24.5 10.1725V15C24.4992 15.628 24.4491 16.2549 24.35 16.875C24.9705 16.6917 25.515 16.3127 25.9025 15.7946C26.29 15.2765 26.4996 14.647 26.5 14V13Z" fill="#2C2B2B"/>
</svg>
